<mxfile host="app.diagrams.net" modified="2023-06-09T17:01:00.822Z" agent="Mozilla/5.0 (Windows NT 10.0; Win64; x64) AppleWebKit/537.36 (KHTML, like Gecko) Chrome/114.0.0.0 Safari/537.36" etag="-aHoV5nQXwksO2lriJ7L" version="21.3.7" type="github">
  <diagram name="Page-1" id="qzC2SNtWhSyA_4ZzGiiV">
    <mxGraphModel dx="1574" dy="1479" grid="1" gridSize="10" guides="1" tooltips="1" connect="1" arrows="1" fold="1" page="1" pageScale="1" pageWidth="850" pageHeight="1100" math="0" shadow="0">
      <root>
        <mxCell id="0" />
        <mxCell id="1" parent="0" />
        <mxCell id="2" value="Strengths" style="whiteSpace=wrap;strokeWidth=2;" parent="1" vertex="1">
          <mxGeometry width="82" height="33" as="geometry" />
        </mxCell>
        <mxCell id="3" value="Internal" style="whiteSpace=wrap;strokeWidth=2;" parent="1" vertex="1">
          <mxGeometry x="132" y="83" width="71" height="33" as="geometry" />
        </mxCell>
        <mxCell id="4" value="External" style="whiteSpace=wrap;strokeWidth=2;" parent="1" vertex="1">
          <mxGeometry x="333" y="83" width="75" height="33" as="geometry" />
        </mxCell>
        <mxCell id="5" value="Weaknesses" style="whiteSpace=wrap;strokeWidth=2;" parent="1" vertex="1">
          <mxGeometry x="252" width="100" height="33" as="geometry" />
        </mxCell>
        <mxCell id="6" value="Opportunities" style="whiteSpace=wrap;strokeWidth=2;" parent="1" vertex="1">
          <mxGeometry x="402" width="113" height="33" as="geometry" />
        </mxCell>
        <mxCell id="7" value="Threats" style="whiteSpace=wrap;strokeWidth=2;" parent="1" vertex="1">
          <mxGeometry x="132" width="70" height="33" as="geometry" />
        </mxCell>
        <mxCell id="8" value="" style="curved=1;startArrow=none;endArrow=block;exitX=0.4531427562934281;exitY=1.0121212583599668;entryX=-0.005424714424240757;entryY=0.1867361467445531;" parent="1" source="2" target="3" edge="1">
          <mxGeometry relative="1" as="geometry">
            <Array as="points">
              <mxPoint x="31" y="58" />
            </Array>
          </mxGeometry>
        </mxCell>
        <mxCell id="9" value="" style="curved=1;startArrow=none;endArrow=block;exitX=0.761240404338464;exitY=1.0121212583599668;entryX=-0.0025312550862630206;entryY=0.34688082297572226;" parent="1" source="2" target="4" edge="1">
          <mxGeometry relative="1" as="geometry">
            <Array as="points">
              <mxPoint x="94" y="58" />
            </Array>
          </mxGeometry>
        </mxCell>
        <mxCell id="10" value="" style="curved=1;startArrow=none;endArrow=block;exitX=0.2712372661096634;exitY=1.0121212583599668;entryX=0.9341319682992316;entryY=0.012121258359966856;" parent="1" source="5" target="3" edge="1">
          <mxGeometry relative="1" as="geometry">
            <Array as="points">
              <mxPoint x="245" y="58" />
            </Array>
          </mxGeometry>
        </mxCell>
        <mxCell id="11" value="" style="curved=1;startArrow=none;endArrow=block;exitX=0.7738517102736341;exitY=1.0121212583599668;entryX=0.49629168192545575;entryY=0.012121258359966856;" parent="1" source="5" target="4" edge="1">
          <mxGeometry relative="1" as="geometry">
            <Array as="points">
              <mxPoint x="370" y="58" />
            </Array>
          </mxGeometry>
        </mxCell>
        <mxCell id="12" value="" style="curved=1;startArrow=none;endArrow=block;exitX=0.49856196040600803;exitY=1.0121212583599668;entryX=0.9668051860579681;entryY=0.012121258359966856;" parent="1" source="6" target="4" edge="1">
          <mxGeometry relative="1" as="geometry">
            <Array as="points">
              <mxPoint x="458" y="58" />
            </Array>
          </mxGeometry>
        </mxCell>
        <mxCell id="13" value="" style="curved=1;startArrow=none;endArrow=block;exitX=0.504732186453683;exitY=1.0121212583599668;entryX=0.4976232824191241;entryY=0.012121258359966856;" parent="1" source="7" target="3" edge="1">
          <mxGeometry relative="1" as="geometry">
            <Array as="points" />
          </mxGeometry>
        </mxCell>
      </root>
    </mxGraphModel>
  </diagram>
</mxfile>
